<svg width="348" height="38" viewBox="0 0 348 38" fill="none" xmlns="http://www.w3.org/2000/svg">
<g clip-path="url(#clip0_23_596)">
<path d="M10.5363 8.53955C4.73735 8.53955 0.0361328 13.2406 0.0361328 19.0396C0.0361328 24.8388 4.73735 29.5396 10.5363 29.5396C16.3359 29.5396 21.0366 24.8388 21.0366 19.0396C21.0366 13.241 16.3359 8.54005 10.5362 8.54005L10.5363 8.53955ZM15.3516 23.6837C15.1636 23.9921 14.7598 24.0899 14.4514 23.9006C11.986 22.3947 8.88248 22.0536 5.22749 22.8887C4.87528 22.969 4.5242 22.7483 4.44395 22.3959C4.36333 22.0436 4.58313 21.6925 4.93621 21.6123C8.93602 20.6985 12.367 21.0919 15.1347 22.7834C15.4432 22.9727 15.541 23.3752 15.3516 23.6837ZM16.6369 20.8246C16.3999 21.2098 15.8958 21.3314 15.5109 21.0944C12.6884 19.3596 8.38608 18.8572 5.04768 19.8705C4.61473 20.0013 4.15744 19.7573 4.02604 19.3251C3.89564 18.8922 4.13976 18.4358 4.57197 18.3041C8.38533 17.147 13.126 17.7075 16.3673 19.6993C16.7522 19.9362 16.8738 20.4403 16.6369 20.8247V20.8246ZM16.7472 17.8474C13.363 15.8374 7.77959 15.6526 4.54852 16.6332C4.02967 16.7906 3.48099 16.4977 3.32375 15.9788C3.16652 15.4597 3.45917 14.9114 3.97839 14.7537C7.68743 13.6277 13.8533 13.8453 17.7495 16.1582C18.2172 16.4352 18.3702 17.038 18.0931 17.504C17.8172 17.9707 17.2129 18.1245 16.7477 17.8474H16.7472ZM28.6037 18.2326C26.7906 17.8003 26.4684 17.4969 26.4684 16.8593C26.4684 16.2569 27.0351 15.8516 27.879 15.8516C28.6965 15.8516 29.5065 16.1594 30.3566 16.7931C30.3817 16.8123 30.4143 16.8199 30.4456 16.8149C30.4782 16.8101 30.5058 16.7927 30.5246 16.7665L31.4098 15.5187C31.4462 15.4672 31.4361 15.3964 31.3872 15.3572C30.3754 14.5455 29.2369 14.1509 27.9053 14.1509C25.948 14.1509 24.58 15.3257 24.58 17.0065C24.58 18.8089 25.7599 19.4471 27.7987 19.9398C29.5328 20.3394 29.8262 20.6741 29.8262 21.2725C29.8262 21.9358 29.2344 22.3483 28.2814 22.3483C27.2232 22.3483 26.3593 21.9909 25.3938 21.1559C25.37 21.1346 25.3374 21.1258 25.3073 21.127C25.2747 21.1295 25.2458 21.1446 25.2258 21.1684L24.2327 22.3496C24.1914 22.3997 24.1964 22.4724 24.244 22.5151C25.3675 23.5181 26.7492 24.0473 28.2413 24.0473C30.3503 24.0473 31.7133 22.895 31.7133 21.1107C31.717 19.6052 30.8155 18.7714 28.6074 18.2343L28.6037 18.2326ZM36.4854 16.4446C35.5714 16.4446 34.8216 16.8047 34.2022 17.5426V16.7121C34.2022 16.6465 34.1495 16.5931 34.0843 16.5931H32.4606C32.3954 16.5931 32.3427 16.6465 32.3427 16.7121V25.9406C32.3427 26.0058 32.3954 26.0597 32.4606 26.0597H34.0843C34.1495 26.0597 34.2022 26.0058 34.2022 25.9406V23.0279C34.8216 23.7213 35.5714 24.0611 36.4854 24.0611C38.1844 24.0611 39.9047 22.7533 39.9047 20.2532C39.9072 17.7527 38.1869 16.4445 36.4867 16.4445L36.4854 16.4446ZM38.0164 20.2532C38.0164 21.5258 37.2327 22.4148 36.1093 22.4148C34.9996 22.4148 34.162 21.4856 34.162 20.2532C34.162 19.0207 34.9996 18.0918 36.1093 18.0918C37.2139 18.0917 38.0164 19.0005 38.0164 20.2531V20.2532ZM44.312 16.4446C42.124 16.4446 40.41 18.1293 40.41 20.2804C40.41 22.4085 42.1128 24.0749 44.2857 24.0749C46.4812 24.0749 48.2002 22.3959 48.2002 20.2532C48.2002 18.1178 46.4925 16.4449 44.312 16.4449V16.4446ZM44.312 22.4273C43.1484 22.4273 42.2707 21.4919 42.2707 20.2526C42.2707 19.0076 43.1184 18.1042 44.2857 18.1042C45.4568 18.1042 46.3395 19.0392 46.3395 20.2798C46.3395 21.5245 45.4869 22.4273 44.312 22.4273ZM52.8721 16.5931H51.0854V14.7667C51.0854 14.7013 51.0327 14.6478 50.9675 14.6478H49.3438C49.2786 14.6478 49.2246 14.7013 49.2246 14.7667V16.5931H48.4447C48.3795 16.5931 48.3269 16.6465 48.3269 16.7121V18.1072C48.3269 18.1727 48.3795 18.2262 48.4447 18.2262H49.2246V21.8367C49.2246 23.295 49.9506 24.0347 51.3838 24.0347C51.9656 24.0347 52.4483 23.9144 52.9035 23.6561C52.9411 23.636 52.9637 23.5959 52.9637 23.5533V22.2242C52.9637 22.184 52.9423 22.1452 52.9072 22.1239C52.8721 22.1013 52.8282 22.1 52.7919 22.1188C52.4797 22.2756 52.1775 22.3483 51.8389 22.3483C51.3186 22.3483 51.0854 22.1113 51.0854 21.5822V18.2269H52.8721C52.9373 18.2269 52.99 18.1734 52.99 18.1079V16.7128C52.9925 16.6473 52.9398 16.5938 52.8734 16.5938L52.8721 16.5931ZM59.0963 16.6002V16.3759C59.0963 15.716 59.3496 15.4217 59.9163 15.4217C60.2548 15.4217 60.5269 15.4889 60.8316 15.5905C60.8692 15.6023 60.9081 15.5964 60.9382 15.5739C60.9695 15.5515 60.9871 15.5155 60.9871 15.4774V14.1094C60.9871 14.0572 60.9545 14.0109 60.9031 13.9955C60.5821 13.8998 60.1708 13.8016 59.5539 13.8016C58.0556 13.8016 57.2619 14.646 57.2619 16.2425V16.5861H56.482C56.4168 16.5861 56.3629 16.6395 56.3629 16.7049V18.1072C56.3629 18.1727 56.4168 18.2262 56.482 18.2262H57.2619V23.794C57.2619 23.8604 57.3158 23.9131 57.381 23.9131H59.0035C59.07 23.9131 59.1226 23.8604 59.1226 23.794V18.2266H60.6385L62.9607 23.794C62.6974 24.3783 62.4378 24.4949 62.0842 24.4949C61.7983 24.4949 61.4962 24.4096 61.189 24.2404C61.1601 24.2253 61.125 24.2228 61.0949 24.2316C61.0636 24.2429 61.0373 24.2654 61.0247 24.2955L60.4743 25.503C60.4479 25.5607 60.4705 25.6271 60.5257 25.6572C61.0999 25.9682 61.6178 26.1011 62.2585 26.1011C63.4572 26.1011 64.1205 25.5419 64.7035 24.0398L67.5197 16.7627C67.5348 16.7261 67.5297 16.6847 67.5072 16.6523C67.4859 16.62 67.4495 16.6006 67.4106 16.6006H65.7204C65.669 16.6006 65.6239 16.6328 65.6076 16.6804L63.876 21.6248L61.9802 16.6771C61.9626 16.6311 61.9187 16.6006 61.8698 16.6006H59.0963V16.6002ZM55.4877 16.5931H53.8639C53.7987 16.5931 53.7448 16.6465 53.7448 16.7121V23.794C53.7448 23.8604 53.7987 23.9131 53.8639 23.9131H55.4877C55.5529 23.9131 55.6068 23.8604 55.6068 23.794V16.7126C55.6068 16.647 55.5541 16.5936 55.4877 16.5936V16.5931ZM54.6852 13.3683C54.042 13.3683 53.5204 13.8889 53.5204 14.532C53.5204 15.1755 54.042 15.6967 54.6852 15.6967C55.3284 15.6967 55.8488 15.1755 55.8488 14.532C55.8488 13.889 55.3272 13.3683 54.6852 13.3683ZM68.9065 18.8702C68.2645 18.8702 67.7642 18.3543 67.7642 17.7277C67.7642 17.1011 68.2708 16.5793 68.9128 16.5793C69.5547 16.5793 70.055 17.0951 70.055 17.7212C70.055 18.3477 69.5485 18.8702 68.9065 18.8702ZM68.9128 16.6929C68.3272 16.6929 67.8846 17.1581 67.8846 17.7277C67.8846 18.2971 68.3247 18.756 68.9065 18.756C69.492 18.756 69.9346 18.2912 69.9346 17.7212C69.9346 17.1518 69.4945 16.6929 68.9128 16.6929ZM69.166 17.8387L69.4895 18.2911H69.2162L68.9253 17.876H68.6758V18.2911H68.4476V17.0919H68.9817C69.2613 17.0919 69.4444 17.2344 69.4444 17.4744C69.4456 17.671 69.3315 17.7911 69.1673 17.8387H69.166ZM68.9729 17.2976H68.6758V17.6769H68.9729C69.1209 17.6769 69.2099 17.6043 69.2099 17.4871C69.2099 17.3637 69.1209 17.2976 68.9729 17.2976Z" fill="#272D38"/>
</g>
<g clip-path="url(#clip1_23_596)">
<path d="M118.472 23.1784L119.2 21.4768C119.998 22.0671 121.037 22.3796 122.077 22.3796C122.84 22.3796 123.325 22.0845 123.325 21.6332C123.307 20.383 118.732 21.3553 118.698 18.2122C118.68 16.6148 120.101 15.382 122.112 15.382C123.307 15.382 124.503 15.6773 125.352 16.3546L124.672 18.0924C123.891 17.5901 122.926 17.2399 122.008 17.2399C121.384 17.2399 120.968 17.5349 120.968 17.9172C120.985 19.15 125.595 18.4727 125.647 21.4768C125.647 23.109 124.261 24.2551 122.285 24.2551C120.829 24.2551 119.495 23.9079 118.472 23.1784H118.472ZM147.46 20.8607C147.276 21.1872 147.009 21.4589 146.685 21.6481C146.362 21.8372 145.994 21.9369 145.619 21.9369C144.452 21.9369 143.505 20.9885 143.505 19.8185C143.505 18.6486 144.452 17.7002 145.619 17.7002C145.994 17.7002 146.362 17.7999 146.685 17.989C147.009 18.1781 147.276 18.4499 147.46 18.7764L149.484 17.653C148.726 16.2981 147.28 15.382 145.619 15.382C143.174 15.382 141.192 17.3681 141.192 19.8185C141.192 22.2687 143.174 24.2551 145.619 24.2551C147.28 24.2551 148.726 23.339 149.484 21.9841L147.46 20.8607ZM126.961 24.0814H129.491V11.6888H126.961L126.961 24.0814ZM150.762 11.6888V24.0814H153.292V20.3686L156.29 24.0814H159.524L155.711 19.6707L159.247 15.555H156.151L153.292 18.9767V11.6888H150.762ZM137.286 15.5555V16.5628C136.87 15.8681 135.848 15.382 134.773 15.382C132.555 15.382 130.805 17.3443 130.805 19.8098C130.805 22.2754 132.555 24.2551 134.773 24.2551C135.848 24.2551 136.87 23.7689 137.286 23.0743V24.0814H139.816V15.5555H137.286ZM137.286 20.8778C136.922 21.4855 136.16 21.9367 135.31 21.9367C134.143 21.9367 133.196 20.9885 133.196 19.8185C133.196 18.6486 134.143 17.7002 135.31 17.7002C136.16 17.7002 136.922 18.1689 137.286 18.7938V20.8778Z" fill="#272D38"/>
<path d="M105.11 11.415C104.291 11.415 103.626 12.0811 103.626 12.9026C103.626 13.0977 103.664 13.291 103.738 13.4714C103.813 13.6518 103.922 13.8157 104.06 13.9538C104.198 14.092 104.362 14.2016 104.542 14.2764C104.722 14.3513 104.915 14.3899 105.11 14.3901H106.595V12.9026C106.596 12.5084 106.439 12.1303 106.161 11.8513C105.882 11.5724 105.505 11.4154 105.11 11.415ZM105.11 15.3818H101.151C100.331 15.3818 99.6668 16.0479 99.6668 16.8696C99.6668 17.6911 100.331 18.3572 101.151 18.3572H105.111C105.93 18.3572 106.595 17.6911 106.595 16.8696C106.595 16.0479 105.93 15.3818 105.11 15.3818Z" fill="#272D38"/>
<path d="M114.513 16.8696C114.513 16.0479 113.849 15.3818 113.029 15.3818C112.209 15.3818 111.544 16.0479 111.544 16.8696V18.3572H113.029C113.423 18.3568 113.801 18.1999 114.079 17.9209C114.358 17.6419 114.514 17.2638 114.513 16.8696ZM110.554 16.8696V12.9026C110.555 12.5084 110.398 12.1303 110.12 11.8513C109.842 11.5724 109.464 11.4154 109.07 11.415C108.25 11.415 107.585 12.0811 107.585 12.9026V16.8694C107.585 17.6913 108.25 18.3574 109.07 18.3574C109.464 18.357 109.842 18.2001 110.12 17.9211C110.398 17.6422 110.555 17.264 110.554 16.8699" fill="#272D38"/>
<path d="M109.07 26.291C109.464 26.2906 109.842 26.1337 110.12 25.8547C110.399 25.5758 110.555 25.1976 110.554 24.8035C110.555 24.4093 110.399 24.0312 110.12 23.7522C109.842 23.4733 109.464 23.3163 109.07 23.3159H107.585V24.8035C107.585 25.6249 108.25 26.291 109.07 26.291ZM109.07 22.3242H113.029C113.849 22.3242 114.514 21.6581 114.514 20.8364C114.514 20.4423 114.358 20.0641 114.079 19.7852C113.801 19.5062 113.423 19.3493 113.029 19.3489H109.07C108.25 19.3489 107.585 20.015 107.585 20.8364C107.585 21.0316 107.623 21.2249 107.698 21.4052C107.772 21.5856 107.881 21.7495 108.019 21.8877C108.157 22.0258 108.321 22.1354 108.501 22.2103C108.681 22.2851 108.874 22.3238 109.07 22.324" fill="#272D38"/>
<path d="M99.6667 20.8364C99.6665 21.0316 99.7047 21.2249 99.7792 21.4052C99.8537 21.5856 99.963 21.7495 100.101 21.8877C100.239 22.0258 100.402 22.1354 100.583 22.2103C100.763 22.2851 100.956 22.3238 101.151 22.324C101.545 22.3236 101.923 22.1666 102.202 21.8877C102.48 21.6087 102.636 21.2306 102.636 20.8364V19.3489H101.151C100.331 19.3489 99.6667 20.015 99.6667 20.8364ZM103.626 20.8364V24.8032C103.626 25.6249 104.29 26.291 105.11 26.291C105.504 26.2906 105.882 26.1337 106.161 25.8547C106.439 25.5758 106.595 25.1976 106.595 24.8035V20.8364C106.595 20.6413 106.557 20.448 106.483 20.2676C106.408 20.0872 106.299 19.9232 106.161 19.7851C106.023 19.647 105.859 19.5373 105.679 19.4625C105.499 19.3876 105.306 19.349 105.11 19.3489C104.29 19.3489 103.626 20.015 103.626 20.8364Z" fill="#272D38"/>
</g>
<g clip-path="url(#clip2_23_596)">
<path d="M211.444 14.0985H215.185C217.57 14.0985 219.54 15.4784 219.54 18.6291V19.2911C219.54 22.4657 217.697 23.8935 215.257 23.8935H211.444V14.0985ZM213.534 15.8772V22.1068H215.137C216.493 22.1068 217.402 21.2214 217.402 19.2512V18.7327C217.402 16.7626 216.445 15.8772 215.065 15.8772H213.534ZM220.649 15.9729H222.324L222.595 17.8155C222.914 16.5632 223.727 15.8931 225.203 15.8931H225.722V18.0069H224.86C223.161 18.0069 222.746 18.5971 222.746 20.2722V23.9174H220.681V15.9729H220.649ZM226.136 20.1047V19.8813C226.136 17.2252 227.835 15.7735 230.148 15.7735C232.51 15.7735 234.161 17.2252 234.161 19.8813V20.1047C234.161 22.713 232.557 24.1168 230.148 24.1168C227.588 24.0929 226.136 22.7209 226.136 20.1047ZM232.047 20.0808V19.8813C232.047 18.4057 231.305 17.5203 230.125 17.5203C228.968 17.5203 228.202 18.3339 228.202 19.8813V20.0808C228.202 21.5085 228.944 22.3221 230.125 22.3221C231.305 22.2982 232.047 21.5085 232.047 20.0808ZM235.245 15.9729H236.968L237.168 17.4725C237.582 16.4674 238.468 15.7735 239.776 15.7735C241.794 15.7735 243.126 17.2252 243.126 19.9133V20.1366C243.126 22.7449 241.65 24.1248 239.776 24.1248C238.524 24.1248 237.662 23.5585 237.24 22.6492V26.6613H235.221L235.245 15.9729ZM241.028 20.0808V19.9053C241.028 18.3259 240.215 17.5443 239.13 17.5443C237.973 17.5443 237.208 18.4296 237.208 19.9053V20.0568C237.208 21.4607 237.949 22.3461 239.106 22.3461C240.294 22.3221 241.028 21.5644 241.028 20.0808ZM246.181 22.4497L246.006 23.9014H244.235V13.3168H246.253V17.3768C246.7 16.3398 247.585 15.7735 248.837 15.7735C250.736 15.7974 252.139 17.1056 252.139 19.7378V19.985C252.139 22.6172 250.807 24.1248 248.789 24.1248C247.457 24.0929 246.596 23.4787 246.181 22.4497ZM250.018 19.985V19.7856C250.018 18.3339 249.228 17.5203 248.119 17.5203C246.987 17.5203 246.197 18.4296 246.197 19.8096V19.985C246.197 21.4607 246.963 22.3221 248.095 22.3221C249.308 22.3221 250.018 21.5644 250.018 19.985ZM253.025 20.1047V19.8813C253.025 17.2252 254.724 15.7735 257.037 15.7735C259.398 15.7735 261.049 17.2252 261.049 19.8813V20.1047C261.049 22.713 259.422 24.1168 257.037 24.1168C254.477 24.0929 253.025 22.7209 253.025 20.1047ZM258.951 20.0808V19.8813C258.951 18.4057 258.209 17.5203 257.029 17.5203C255.872 17.5203 255.107 18.3339 255.107 19.8813V20.0808C255.107 21.5085 255.848 22.3221 257.029 22.3221C258.217 22.2982 258.951 21.5085 258.951 20.0808ZM263.753 19.7856L260.969 15.9729H263.354L264.957 18.3579L266.585 15.9729H268.946L266.122 19.7617L269.097 23.9014H266.76L264.942 21.2692L263.171 23.9014H260.73L263.753 19.7856Z" fill="#272D38"/>
<path d="M198.586 14.0985L193.96 17.0498L198.586 20.0011L193.96 22.9523L189.333 19.9851L193.96 17.0339L189.333 14.0985L193.96 11.1473L198.586 14.0985ZM193.936 23.9015L198.562 20.9503L203.188 23.9015L198.562 26.8528L193.936 23.9015ZM198.586 19.9851L203.212 17.0339L198.586 14.0985L203.188 11.1473L207.815 14.0985L203.188 17.0498L207.815 20.0011L203.188 22.9523L198.586 19.9851Z" fill="#272D38"/>
</g>
<path fill-rule="evenodd" clip-rule="evenodd" d="M338.854 17.2986C339.041 17.6214 339.102 17.9887 339.122 18.4016L339.149 18.952V22.8003L339.176 23.3513C339.23 24.251 339.894 24.9163 340.8 24.9729L341.348 25V18.952L341.376 18.4016C341.398 17.9933 341.459 17.6191 341.649 17.294C341.842 16.9605 342.12 16.6838 342.455 16.4917C342.789 16.2996 343.168 16.1989 343.553 16.1996C343.939 16.2003 344.318 16.3024 344.651 16.4957C344.985 16.6891 345.262 16.9667 345.454 17.3009C345.641 17.6237 345.7 17.998 345.722 18.4016L345.749 18.9502V22.8003L345.777 23.3513C345.833 24.2556 346.491 24.9209 347.401 24.9729L347.949 25V18.4016C347.949 17.2348 347.486 16.1158 346.661 15.2906C345.836 14.4654 344.717 14.0016 343.55 14.0012C342.926 14.0005 342.308 14.1331 341.739 14.3901C341.17 14.6472 340.662 15.0227 340.25 15.4917C339.837 15.0229 339.33 14.6475 338.761 14.3903C338.191 14.1332 337.574 14.0004 336.95 14.0006C336.036 14.0006 335.188 14.2778 334.486 14.7565C334.058 14.2784 333.099 14.0006 332.549 14.0006V25L333.099 24.9729C334.019 24.9122 334.685 24.2649 334.721 23.3513L334.75 22.8003V18.952L334.777 18.4016C334.8 17.9864 334.858 17.6214 335.046 17.2963C335.239 16.963 335.517 16.6864 335.851 16.4941C336.185 16.3018 336.564 16.2004 336.95 16.2002C337.335 16.2003 337.714 16.3018 338.049 16.4946C338.383 16.6874 338.66 16.9647 338.854 17.2986ZM301.2 24.9734L301.75 25H309.999L309.972 24.4514C309.898 23.547 309.257 22.8864 308.35 22.8275L307.8 22.8003H302.851L309.449 16.1997L309.422 15.6516C309.379 14.738 308.712 14.078 307.8 14.0277L307.249 14.0029L299 14.0006L299.027 14.5509C299.099 15.4466 299.749 16.1211 300.649 16.1731L301.2 16.2002H306.149L299.55 22.8009L299.577 23.3513C299.632 24.2579 300.286 24.9145 301.2 24.9729V24.9734ZM330.389 15.6106C330.9 16.1213 331.305 16.7276 331.582 17.3949C331.858 18.0622 332.001 18.7774 332.001 19.4997C332.001 20.222 331.858 20.9372 331.582 21.6045C331.305 22.2718 330.9 22.8781 330.389 23.3888C329.357 24.4199 327.958 24.9992 326.499 24.9992C325.041 24.9992 323.641 24.4199 322.609 23.3888C320.462 21.2411 320.462 17.7583 322.609 15.6106C323.12 15.1001 323.726 14.6951 324.393 14.4188C325.059 14.1424 325.774 14.0001 326.496 14C327.219 13.9995 327.935 14.1415 328.603 14.418C329.271 14.6945 329.878 15.0999 330.389 15.6112V15.6106ZM328.833 17.1681C329.452 17.7872 329.799 18.6266 329.799 19.5017C329.799 20.3769 329.452 21.2163 328.833 21.8354C328.214 22.454 327.375 22.8015 326.499 22.8015C325.624 22.8015 324.785 22.454 324.166 21.8354C323.547 21.2163 323.2 20.3769 323.2 19.5017C323.2 18.6266 323.547 17.7872 324.166 17.1681C324.785 16.5495 325.624 16.202 326.499 16.202C327.375 16.202 328.214 16.5495 328.833 17.1681ZM314.953 14C315.675 14.0002 316.39 14.1426 317.057 14.419C317.723 14.6955 318.329 15.1006 318.84 15.6112C320.988 17.7583 320.988 21.2417 318.84 23.3888C317.808 24.4199 316.408 24.9992 314.95 24.9992C313.491 24.9992 312.092 24.4199 311.06 23.3888C308.912 21.2411 308.912 17.7583 311.06 15.6106C311.57 15.1001 312.176 14.6951 312.843 14.4188C313.51 14.1424 314.224 14.0001 314.946 14H314.953ZM317.283 17.1669C317.902 17.7861 318.25 18.6255 318.25 19.5009C318.25 20.3762 317.902 21.2157 317.283 21.8348C316.664 22.4534 315.825 22.8009 314.95 22.8009C314.074 22.8009 313.235 22.4534 312.616 21.8348C311.997 21.2157 311.65 20.3763 311.65 19.5012C311.65 18.626 311.997 17.7866 312.616 17.1675C313.235 16.5489 314.074 16.2014 314.95 16.2014C315.825 16.2014 316.664 16.5489 317.283 17.1675V17.1669Z" fill="#272D38"/>
<defs>
<clipPath id="clip0_23_596">
<rect width="70" height="24" fill="white" transform="translate(0 7)"/>
</clipPath>
<clipPath id="clip1_23_596">
<rect width="60" height="23.8017" fill="white" transform="translate(99.6667 7.09918)"/>
</clipPath>
<clipPath id="clip2_23_596">
<rect width="80" height="23.5583" fill="white" transform="translate(189.333 7.22089)"/>
</clipPath>
</defs>
</svg>
